<?xml version="1.0" encoding="UTF-8"?>
<svg id="Layer_2" data-name="Layer 2" xmlns="http://www.w3.org/2000/svg" viewBox="0 0 43.92 26.23">
  <defs>
    <style>
      .cls-1 {
        fill: #1d2827;
        stroke-width: 0px;
      }
    </style>
  </defs>
  <g id="Layer_1-2" data-name="Layer 1">
    <g>
      <path class="cls-1" d="m15.59,7.8C15.59,4.57,13.04,0,13.04,0h-4.37l-1.1,2.28c.99.07,2.23.15,2.72.18-.35.44-1.83,2.32-2.59,3.29.52.03,1.17.08,1.32.09-.02.03-1.78,3-1.86,3.14l1.16-2.71-1.24.08-.59.04.32-.54,1.34-2.26c-1,.07-2.3.15-2.79.18l.36-1.1L6.59,0H2.56S0,4.57,0,7.8c0,4.2,3.31,7.62,7.47,7.79v8.7c-.7.62-2.29,1.3-2.77,1.5-.09.04-.14.12-.14.21,0,.06.03.12.07.16.04.04.1.07.16.07h6.03c.06,0,.12-.03.16-.07.04-.04.07-.1.07-.16,0-.09-.06-.18-.14-.21-.48-.2-2.07-.88-2.77-1.5v-8.7c4.15-.17,7.47-3.59,7.47-7.79Z"/>
      <g>
        <polygon class="cls-1" points="24.08 13.66 31.68 18.04 31.68 9.27 24.08 4.88 24.08 13.66"/>
        <polygon class="cls-1" points="39.85 4.88 32.25 9.27 32.25 18.04 39.85 13.66 39.85 4.88"/>
        <polygon class="cls-1" points="31.96 0 24.36 4.39 31.96 8.77 39.56 4.39 31.96 0"/>
        <path class="cls-1" d="m43.84,11.79c-.02-.4-.04-.81-.08-1.21-.04-.4-.38-.72-.78-.72-.24,0-.46.11-.61.29-.14.17-.17.37-.18.58-.02.35-.05.71-.07,1.06-.14,1.86-.33,3.74-.69,5.57.14.59-.13,1.13-.49,1.58-.49.6-1.02,1.18-1.53,1.76-.31.35-.62.7-.92,1.05-.15.17-.39-.08-.24-.24.1-.12.21-.23.31-.35.46-.52.92-1.04,1.38-1.57.23-.26.46-.52.69-.79.32-.38.61-.85.48-1.36,0-.02,0-.03,0-.05-.36-1-1.71-.17-2.26.18-1.44.91-2.72,2.12-3.54,3.63-.83,1.52-1.15,3.35-.69,5.03h4.03c.46-.87,1.04-1.66,1.67-2.42.56-.68,1.16-1.33,1.7-2.02.28-.36.55-.73.79-1.12.21-.33.41-.66.53-1.02.25-.73.34-1.53.41-2.3.08-.87.12-1.73.15-2.6.04-.99,0-1.98-.06-2.96Z"/>
        <path class="cls-1" d="m25.09,17.57c-.55-.35-1.9-1.18-2.26-.18,0,.01,0,.03,0,.05-.13.52.16.98.48,1.36.23.27.46.53.69.79.46.52.92,1.04,1.38,1.57.1.12.21.23.31.35.15.16-.1.41-.24.24-.31-.35-.62-.7-.92-1.05-.51-.58-1.05-1.15-1.53-1.76-.36-.45-.64-.99-.49-1.58-.36-1.84-.55-3.71-.69-5.57-.03-.35-.05-.71-.07-1.06-.01-.21-.04-.41-.18-.58-.15-.18-.38-.29-.61-.29-.41,0-.74.32-.78.72-.04.4-.05.81-.08,1.21-.05.98-.11,1.98-.06,2.96.04.87.07,1.74.15,2.6.07.77.16,1.56.41,2.3.13.37.33.7.53,1.02.24.39.51.76.79,1.12.54.69,1.14,1.35,1.7,2.02.63.75,1.22,1.54,1.67,2.42h4.03c.46-1.68.14-3.51-.69-5.03-.82-1.51-2.1-2.72-3.54-3.63Z"/>
      </g>
    </g>
  </g>
</svg>