<?xml version="1.0" encoding="UTF-8"?>
<svg id="Layer_2" data-name="Layer 2" xmlns="http://www.w3.org/2000/svg" viewBox="0 0 65.46 41.47">
  <defs>
    <style>
      .cls-1 {
        fill: none;
        stroke: #231f20;
        stroke-miterlimit: 10;
        stroke-width: .26px;
      }

      .cls-2, .cls-3 {
        stroke-width: 0px;
      }

      .cls-3 {
        fill: #fff;
      }
    </style>
  </defs>
  <g id="Layer_1-2" data-name="Layer 1">
    <g>
      <path class="cls-2" d="m33.63,0c3.82.05,7.27,1.18,10.33,3.43,2.9,2.14,4.85,4.97,5.87,8.44.65,2.22.81,4.47.46,6.77-.46,3.03-1.6,5.74-3.68,8.01-2.34,2.55-5.27,4.06-8.64,4.74-1.53.31-3.06.45-4.62.38-2.78-.11-5.4-.78-7.84-2.12-4.34-2.37-7.13-5.97-7.98-10.83-1-5.68.69-10.57,4.95-14.5C24.92,2.05,27.86.73,31.15.23c.82-.13,1.65-.15,2.48-.23Zm1.47.31c-4.36-.04-7.14.71-9.71,2.24-3.58,2.12-6.06,5.13-7.23,9.14-1.02,3.49-.81,6.95.63,10.29,1.47,3.41,3.97,5.9,7.25,7.58,3.74,1.91,7.69,2.39,11.8,1.54,2.58-.53,4.95-1.56,6.98-3.24,3.25-2.68,4.95-6.19,5.28-10.35.4-5.05-1.35-9.32-5.03-12.76-3.17-2.97-7.01-4.35-9.97-4.44Z"/>
      <path class="cls-2" d="m16.31,36.32c-.79-.03-1.31-.53-1.29-1.23.02-.73.62-1.25,1.4-1.22.72.03,1.26.58,1.24,1.27-.02.72-.58,1.21-1.34,1.18Zm.88-1.19c0-.52-.39-.94-.88-.94-.46,0-.82.39-.82.89,0,.53.38.96.85.95.48,0,.85-.4.85-.91Z"/>
      <path class="cls-2" d="m35.64,36.31c-.74,0-1.31-.52-1.31-1.19,0-.7.61-1.26,1.39-1.25.72,0,1.29.52,1.29,1.17,0,.78-.53,1.28-1.37,1.27Zm.9-1.18c0-.54-.35-.94-.85-.95-.49,0-.86.38-.87.9,0,.54.36.95.85.95.48,0,.86-.4.87-.9Z"/>
      <path class="cls-2" d="m45.77,30.34c.86-.07,1.14-.69,1.38-1.37.11.76.46,1.29,1.29,1.42-.79.11-1.11.61-1.23,1.34-.22-.75-.69-1.19-1.44-1.39Z"/>
      <path class="cls-2" d="m47.29,36.25c-.3.1-.44-.01-.44-.32,0-.15.02-.29.02-.44.01-.27-.1-.46-.39-.47-.28,0-.43.14-.43.43,0,.24,0,.48,0,.73-.31.12-.39.07-.38-.25,0-.17.02-.34,0-.51-.01-.23-.1-.41-.37-.39-.25.01-.42.12-.42.4,0,.2.02.39,0,.58-.01.08-.11.15-.17.22-.06-.07-.16-.14-.17-.22-.04-.4-.05-.79-.07-1.22.01,0,.1-.06.12-.05.29.28.59-.06.85.01.41.12.79.07,1.2,0,.37-.07.58.19.61.61.01.15,0,.29,0,.44,0,.14.03.28.04.44Z"/>
      <path class="cls-2" d="m23.61,36.35c-.24-.07-.49-.13-.72-.23-.06-.03-.08-.17-.11-.26.08,0,.17-.02.25,0,.28.03.57.1.85.1.09,0,.25-.15.26-.25.01-.09-.1-.25-.2-.3-.25-.13-.51-.22-.77-.32-.24-.1-.43-.24-.43-.53,0-.29.18-.48.42-.53.35-.07.71-.07,1.07-.07.07,0,.15.17.22.26-.1.02-.2.05-.3.05-.25,0-.5-.04-.75-.02-.08,0-.2.12-.22.2-.01.07.08.2.16.25.14.09.31.14.46.21.02,0,.04.02.07.03.5.18.79.49.75.79-.05.34-.44.57-1,.62Z"/>
      <path class="cls-2" d="m43,36.33c-.21-.05-.42-.09-.62-.17-.07-.03-.11-.16-.16-.24.09-.02.19-.05.28-.04.25.03.5.11.75.1.13,0,.25-.16.37-.24-.09-.11-.16-.27-.27-.33-.24-.13-.54-.18-.76-.33-.16-.11-.36-.34-.34-.49.02-.18.22-.44.39-.49.35-.1.73-.09,1.1-.08.08,0,.15.17.23.26-.1.01-.21.04-.31.04-.25,0-.5-.03-.75-.02-.08,0-.22.12-.23.19,0,.1.08.23.17.28.2.11.43.17.63.28.18.1.37.2.5.35.23.28.08.66-.3.81-.2.08-.42.09-.66.14Z"/>
      <path class="cls-2" d="m31.19,36.92c-.31.11-.41,0-.4-.28.01-.35.02-.71.01-1.06,0-.24-.05-.47-.08-.75-.03.03-.01,0,0,0,.39-.02.79-.08,1.18-.05.35.03.56.27.61.63.04.36-.09.64-.44.75-.27.09-.56.1-.88.16v.61Zm-.01-1.34c-.04.29.1.44.43.43.32-.01.52-.2.5-.51-.02-.28-.15-.46-.46-.46-.32,0-.48.16-.47.54Z"/>
      <path class="cls-2" d="m20.64,28.58c.09-.06.17-.14.26-.18.27-.13.54-.13.79.05.25.19.3.46.23.72-.17.64-.66,1-1.2,1.3-.05.03-.15,0-.2-.04-.31-.22-.63-.42-.9-.68-.37-.37-.4-.89-.14-1.19.26-.31.66-.3,1.14.02Zm-.03.37s-.05-.07-.09-.12c-.23-.3-.53-.38-.78-.2-.23.17-.3.51-.07.78.26.3.59.54.89.8.04.03.11.04.16.03.37-.1.97-.8,1.02-1.17.05-.39-.23-.66-.6-.53-.18.06-.33.25-.53.42Z"/>
      <path class="cls-2" d="m50.04,35.84c.2.06.4.16.61.17.19.01.39-.06.67-.12-.36.45-1.03.52-1.45.23-.28-.19-.34-.61-.13-.96.22-.37.8-.55,1.19-.33.14.08.27.26.28.41,0,.09-.2.25-.34.29-.26.09-.54.12-.81.18,0,.04-.02.08-.03.12Zm-.04-.48s.05.08.07.13c.27-.06.54-.12.82-.17,0-.06,0-.13,0-.19-.17-.03-.36-.1-.51-.06-.14.03-.25.2-.37.3Z"/>
      <path class="cls-2" d="m27.49,36.29c-.49,0-.93-.34-.93-.75,0-.44.4-.77.94-.77.47,0,.88.36.88.76,0,.4-.41.75-.89.76Zm.45-.76c0-.27-.22-.49-.49-.48-.29.01-.45.17-.45.46,0,.28.2.5.47.5.27,0,.49-.21.48-.49Z"/>
      <path class="cls-2" d="m20.36,35.83c.2.06.4.16.6.17.19.01.39-.06.67-.11-.36.45-.89.52-1.34.26-.32-.19-.42-.55-.25-.92.2-.46.98-.65,1.35-.33.09.08.19.24.17.34-.03.12-.16.25-.28.29-.29.09-.59.13-.89.19-.01.04-.02.08-.03.12Zm.9-.55c-.41-.38-.75-.28-.92.21.31-.07.58-.13.92-.21Z"/>
      <path class="cls-2" d="m30.43,35.51c.01.38-.41.76-.87.77-.47.02-.92-.33-.94-.73-.02-.45.37-.79.9-.8.51,0,.89.31.91.75Zm-.42-.01c0-.26-.24-.47-.51-.47-.28,0-.48.21-.47.49.01.29.25.51.52.5.25-.01.47-.26.46-.52Z"/>
      <path class="cls-2" d="m39.78,35.74c.34.49.83.1,1.25.22-.34.35-.83.42-1.27.21-.33-.15-.42-.42-.36-.76.05-.33.26-.51.56-.61.32-.1.63-.11.89.13.24.22.21.45-.1.56-.3.11-.63.16-.96.24Zm.83-.43c0-.06,0-.12,0-.18-.17-.02-.35-.1-.51-.06-.14.04-.24.2-.36.31.02.04.05.08.07.11.27-.06.53-.12.8-.18Z"/>
      <path class="cls-2" d="m37.92,34.92c.07-.03.2-.1.33-.13.45-.12.78.13.79.59,0,.15,0,.29,0,.44,0,.13.04.26.06.39-.32.14-.42.09-.43-.23,0-.17,0-.34,0-.51,0-.26-.13-.42-.39-.43-.27,0-.45.12-.45.41,0,.18.02.37,0,.55-.01.09-.11.16-.16.25-.07-.08-.18-.15-.19-.24-.03-.29-.04-.58-.04-.87,0-.13.05-.25.08-.38.12.05.24.1.41.17Z"/>
      <path class="cls-2" d="m19.67,36.27c-.22.08-.38,0-.38-.32,0-.16,0-.32,0-.48,0-.27-.12-.45-.41-.44-.27.02-.47.13-.45.45,0,.19.02.39,0,.58,0,.07-.11.12-.17.18-.05-.06-.14-.11-.15-.18-.03-.4-.06-.8-.07-1.2,0-.04.1-.14.13-.13.11.04.22.11.36.18.06-.03.18-.09.31-.13.48-.14.83.1.84.61,0,.27,0,.55,0,.86Z"/>
      <path class="cls-2" d="m49.55,28.84c-.16-.74-.44-1.28-1.19-1.48.72-.21,1.05-.71,1.14-1.43.36.54.51,1.24,1.24,1.36-.25.22-.52.39-.71.63-.19.24-.29.54-.48.91Zm.08-.63c.2-.28.42-.58.61-.83-.22-.3-.45-.61-.64-.88-.23.29-.47.59-.68.86.24.28.48.57.72.85Z"/>
      <path class="cls-2" d="m26.3,35.92c-.29.43-.87.46-1.25.13-.27-.23-.29-.66-.06-.96.29-.37.89-.43,1.41-.04-.2.02-.32.07-.41.04-.26-.09-.51-.11-.65.14-.08.14-.07.39,0,.54.12.25.37.29.63.22.11-.03.21-.05.32-.08Z"/>
      <path class="cls-2" d="m48.73,33.9c.33-.13.42,0,.42.29-.01.5-.03,1-.02,1.49,0,.17.11.35.17.54-.32.18-.56.06-.57-.37,0-.64,0-1.29,0-1.95Z"/>
      <path class="cls-2" d="m18.12,26.3c.18.49.31.98.9,1.14-.62.11-.66.65-.89,1.09-.11-.57-.39-.96-1-1.07.6-.18.91-.56.99-1.16Zm.03.58c-.16.19-.32.38-.49.57.16.18.33.37.5.56.15-.21.29-.41.41-.59-.15-.18-.29-.36-.42-.54Z"/>
      <path class="cls-2" d="m48.22,36.22c-.37.12-.44.07-.45-.29,0-.3-.02-.61,0-.91,0-.09.08-.18.12-.27.09.09.24.17.25.26.04.25,0,.51.01.77,0,.14.05.27.08.44Z"/>
      <path class="cls-2" d="m44.56,32.1c-.11-.2-.2-.36-.28-.52.17-.1.35-.2.53-.3.11.12.24.26.41.44-.21.13-.44.26-.66.39Z"/>
      <path class="cls-2" d="m17.65,30.56c-.1-.16-.21-.26-.22-.37,0-.06.17-.19.25-.18.08.01.2.15.21.24,0,.08-.12.17-.24.31Z"/>
      <path class="cls-2" d="m49.6,31.47c-.16-.2-.32-.32-.33-.45,0-.09.18-.3.27-.29.13,0,.32.16.34.27.02.12-.15.26-.28.47Zm-.02-.18c.09-.12.2-.21.19-.26-.02-.08-.12-.14-.19-.21-.06.06-.18.13-.18.19,0,.08.1.16.19.29Z"/>
      <path class="cls-2" d="m33.05,36.38c-.11-.12-.23-.19-.23-.26,0-.07.12-.18.19-.19.08,0,.17.09.25.14-.06.09-.12.17-.22.31Z"/>
      <path class="cls-2" d="m23.3,30.29c-.17.1-.26.18-.36.19-.05,0-.11-.12-.17-.19.09-.07.17-.16.27-.19.05-.01.13.09.26.18Z"/>
      <path class="cls-2" d="m51.8,36.43c-.04-.1-.13-.22-.11-.3.02-.08.15-.19.24-.2.07,0,.15.12.23.18-.07.07-.14.15-.2.22-.05.03-.1.06-.16.09Z"/>
      <path class="cls-2" d="m48.25,34.16c-.15.11-.23.21-.31.2-.08,0-.16-.1-.24-.16.07-.07.13-.18.21-.19.08-.01.17.07.34.14Z"/>
      <path class="cls-3" d="m35.1.31c2.96.08,6.81,1.47,9.97,4.44,3.68,3.44,5.43,7.71,5.03,12.76-.33,4.16-2.02,7.67-5.28,10.35-2.04,1.68-4.4,2.7-6.98,3.24-4.11.85-8.06.37-11.8-1.54-3.28-1.68-5.78-4.17-7.25-7.58-1.44-3.34-1.65-6.8-.63-10.29,1.17-4.01,3.65-7.01,7.23-9.14,2.58-1.53,5.36-2.28,9.71-2.24Zm-16.19,15.67c-.04,1.94.46,3.77,1.19,5.52.76,1.8,1.96,3.31,3.36,4.67,1.57,1.52,3.42,2.59,5.48,3.29,3.85,1.31,7.62,1.1,11.33-.52,1.29-.56,2.42-1.36,3.49-2.27.14-.12.39-.17.59-.18.3-.01.6.04.91.08.34.03.46-.14.46-.46,0-.44-.01-.88,0-1.32,0-.13.06-.29.15-.38.86-.98,1.59-2.04,2.04-3.27.93-2.55,1.16-5.16.61-7.82-.36-1.76-1.07-3.37-2.05-4.87-1.31-1.99-3.01-3.57-5.1-4.75-1.73-.97-3.56-1.6-5.52-1.88-2.32-.34-4.59-.07-6.81.62-2.66.83-4.88,2.35-6.7,4.44-2.28,2.61-3.39,5.67-3.46,9.11Z"/>
      <path class="cls-3" d="m17.19,35.13c0,.51-.37.91-.85.91-.47,0-.85-.42-.85-.95,0-.51.36-.89.82-.89.48,0,.88.42.88.94Z"/>
      <path class="cls-3" d="m36.55,35.13c0,.5-.38.9-.87.9-.49,0-.86-.41-.85-.95,0-.52.38-.9.87-.9.5,0,.86.4.85.95Z"/>
      <path class="cls-3" d="m31.18,35.58c0-.38.15-.54.47-.54.31,0,.44.18.46.46.02.3-.18.49-.5.51-.34.02-.48-.14-.43-.43Z"/>
      <path class="cls-3" d="m49.99,35.35c.12-.1.23-.27.37-.3.16-.04.34.04.51.06,0,.06,0,.13,0,.19-.27.06-.54.12-.82.17-.02-.04-.05-.08-.07-.13Z"/>
      <path class="cls-3" d="m27.94,35.53c0,.27-.21.49-.48.49-.27,0-.48-.22-.47-.5,0-.29.17-.45.45-.46.27-.01.49.2.49.48Z"/>
      <path class="cls-3" d="m21.25,35.28c-.35.08-.62.14-.92.21.17-.49.51-.59.92-.21Z"/>
      <path class="cls-3" d="m30,35.5c0,.26-.2.51-.46.52-.27.01-.5-.21-.52-.5-.01-.28.19-.49.47-.49.27,0,.5.21.51.47Z"/>
      <path class="cls-3" d="m40.61,35.31c-.27.06-.53.12-.8.18-.02-.04-.05-.08-.07-.11.12-.11.22-.27.36-.31.15-.04.34.03.51.06,0,.06,0,.12,0,.18Z"/>
      <path class="cls-3" d="m49.64,28.2c-.24-.28-.48-.57-.72-.85.21-.26.45-.57.68-.86.2.27.42.58.64.88-.19.25-.41.55-.61.83Z"/>
      <path class="cls-3" d="m49.58,31.29c-.09-.13-.18-.21-.19-.29,0-.06.11-.12.18-.19.07.07.17.13.19.21.01.05-.09.14-.19.26Z"/>
      <path class="cls-2" d="m18.91,15.98c.06-3.45,1.18-6.51,3.46-9.11,1.82-2.09,4.04-3.6,6.7-4.44,2.22-.7,4.49-.96,6.81-.62,1.96.28,3.79.91,5.52,1.88,2.08,1.18,3.78,2.76,5.1,4.75.98,1.49,1.69,3.11,2.05,4.87.55,2.66.32,5.27-.61,7.82-.45,1.24-1.18,2.3-2.04,3.27-.09.1-.14.25-.15.38-.02.44-.01.88,0,1.32,0,.32-.12.49-.46.46-.3-.03-.61-.09-.91-.08-.2,0-.44.06-.59.18-1.07.91-2.2,1.71-3.49,2.27-3.71,1.62-7.49,1.82-11.33.52-2.07-.7-3.91-1.77-5.48-3.29-1.4-1.35-2.61-2.87-3.36-4.67-.74-1.75-1.24-3.58-1.19-5.52Zm24.75,10.6l-.04-.15c-.56,0-1.12,0-1.67,0-.06,0-.13.05-.19.09-1.61,1.11-3.41,1.73-5.31,2.12-2.68.55-5.3.32-7.82-.67-2.81-1.11-5-3.02-6.56-5.58-2.13-3.48-2.42-7.18-1.03-11.01.78-2.13,2.09-3.87,3.84-5.3,2.6-2.13,5.57-3.21,8.92-3.22,3.23,0,6.12,1.04,8.68,2.99,1.63,1.25,2.92,2.78,3.77,4.65,1.08,2.38,1.47,4.88,1.07,7.48-.23,1.49-.56,2.96-1.49,4.2-.05.07-.1.18-.1.27,0,.53,0,1.06,0,1.7.82-.95,1.5-1.88,1.9-2.96.95-2.54,1.22-5.16.65-7.82-.71-3.34-2.47-6.07-5.12-8.2-2.32-1.85-4.99-2.91-7.95-3.18-3.8-.34-7.25.56-10.32,2.86-2.28,1.71-3.95,3.86-4.92,6.55-1.21,3.38-1.04,6.71.38,9.96,1.04,2.39,2.7,4.32,4.81,5.85,2,1.45,4.24,2.38,6.7,2.7,3.55.47,6.85-.32,9.93-2.09.65-.38,1.26-.83,1.88-1.25Zm-19.08-7.93c.12,1.41.66,2.62,1.58,3.69,1.97,2.3,4.53,3.23,7.48,3.24.8,0,1.59-.19,2.39-.26.9-.08,1.72-.35,2.46-.84.12-.08.22-.29.23-.44.01-.34-.07-.68-.07-1.01,0-.52.06-1.04.08-1.55.01-.47.06-.53.53-.54.98,0,1.97,0,2.95,0,.08,0,.22-.03.25-.08.32-.69.61-1.39.68-2.1-.41.25-.79.6-1.25.76-1.02.36-2.07.66-3.12.91-2.25.53-4.53.55-6.82.42-2.61-.15-5.13-.63-7.36-2.19Zm15.35,2.68s-.03.07-.04.1c.22.05.44.13.65.14.94.02,1.88.01,2.82.02.1,0,.21.03.31.04-1.11.07-2.21.08-3.31.06-.18,0-.45-.08-.52-.21-.22-.37-.54-.23-.85-.29v5.06c.15.01.26.02.42.03v-4.77s.05,0,.08,0v4.73c1.9-.3,3.76-.32,5.65.07v-4.86s.05,0,.07,0v4.82s.06,0,.09,0v-5.09c-.31,0-.61-.02-.9,0-.35.03-.69.13-1.04.13-1.15.02-2.29,0-3.44,0Zm1.84-3.32c0-.05-.02-.1-.03-.15-.28-.14-.56-.29-.85-.41-.39-.17-.79-.32-1.19-.49-.25-.11-.35-.32-.25-.57.1-.24.3-.3.55-.21.19.07.4.12.59.19.97.37,1.93.74,2.98,1.14.41-1.03.82-2.07,1.23-3.11.07-.17.14-.34.23-.51.11-.21.09-.38-.15-.47-1.24-.47-2.49-.95-3.74-1.41-.29-.11-.45.06-.41.38.01.09.02.19-.01.27-.69,1.63-1.39,3.25-2.09,4.88-.11.25-.21.51-.31.76.31.08.55.11.81-.11.15-.13.46-.19.65-.13.28.09.53.31.88.54.3-.16.7-.37,1.1-.59Zm-14.91-1.61c-.22-.11-.46-.33-.57-.27-.52.23-1.05.49-1.49.83-.46.36-.49.85-.08,1.28.35.36.77.68,1.22.9,1.46.72,3.03,1.13,4.64,1.29,2.97.3,5.93.29,8.86-.44.97-.24,1.96-.46,2.82-1,.42-.26.83-.55.9-1.09.02-.12-.06-.31-.15-.38-.33-.24-.81-.04-.93.37-.1.35-.33.54-.65.68-1.91.85-3.93,1.16-5.99,1.25-2.28.1-4.55.03-6.79-.47-.92-.21-1.84-.44-2.62-1-.6-.42-.6-1,0-1.44.24-.18.51-.32.84-.52Zm12.08-.08c-3.63-.8-7.17-.82-10.79.06.54.5,1,.93,1.46,1.37.81-.82,1.66-.74,2.35-.25.6-1.42,2.51-1.51,3.39-.11.99-.63,2.21-.22,2.65,1.03.32-.71.62-1.37.95-2.1Zm-9.63,1.64s.03-.05.05-.08c-.28-.26-.57-.52-.85-.79-.65-.63-1.29-1.26-1.93-1.9-.06-.06-.08-.2-.05-.28.42-1.29-.43-2.78-2.02-3.11-.73-.15-1.39,0-1.88.61-.49.62-.44,1.28-.1,1.96.68,1.34,2.43,1.86,3.62,1.06.05.07.1.14.15.2.58.61,1.17,1.21,1.74,1.83.28.3.5.68,1.01.48.07-.03.17.01.25.02Zm9.9-2.38c-4.06-1.11-10.1-.58-11.63.22.18.39.45.37.83.28,3.37-.76,6.76-.78,10.15-.1.49.1.48.11.66-.39Zm-5.7-8.17c-.05-.3-.08-.61-.17-.9-.25-.8-.9-1.24-1.66-1.15-.77.1-1.26.66-1.26,1.54,0,.42.08.85.22,1.25.26.73,1.04,1.09,1.79.88.68-.19,1.01-.71,1.08-1.63Zm.32-.12c.02.15.03.4.08.63.14.61.61,1.04,1.17,1.1.71.07,1.28-.18,1.5-.72.31-.77.35-1.54-.07-2.29-.42-.75-1.37-.94-2.04-.39-.49.41-.62.97-.65,1.66Zm3.91,18c-1.4.39-2.79.64-4.21.58-1.43-.06-2.83-.26-4.2-.81.18.58.49.99,1.08,1.1.84.16,1.68.33,2.52.4,1.27.09,2.54.03,3.78-.29.52-.14.83-.46,1.03-.98Zm-4.34-5.93c.24-.22.44-.46.69-.6.53-.3.52-.29.85-.82.17-.27.11-.45-.06-.65-.11-.13-.23-.25-.37-.35-.5-.37-1.21-.39-1.69-.07-.52.35-.76.94-.61,1.56.02.09.11.22.18.23.5.04.79.34,1.01.7Zm4.43-11.31c.29,0,.54.02.8,0,.62-.05.99-.45,1.06-1.1.05-.54-.3-1.06-.87-1.2-.33-.08-.67-.13-1.01-.17-.36-.05-.49.06-.53.43-.04.41-.07.83-.1,1.24-.03.45-.07.9-.09,1.35,0,.24-.04.55.3.57.31.02.32-.27.36-.5.03-.19.05-.38.08-.61Zm-11.47-1.03c.07,0,.16.04.22,0,.13-.06.33-.13.34-.23.02-.11-.09-.31-.2-.37-.42-.24-1.4.02-1.68.42-.37.53-.2,1.17.39,1.43.32.14.69.17,1.01.32.15.07.32.28.33.44,0,.11-.23.28-.39.33-.17.05-.39.03-.57-.02-.22-.06-.44-.06-.48.16-.02.13.12.37.25.44.42.22.88.19,1.31-.01.39-.18.65-.48.65-.94,0-.47-.24-.78-.67-.96-.2-.08-.41-.14-.63-.19-.29-.07-.65-.05-.67-.47-.02-.25.3-.39.78-.36Zm1.25.41c.15.42.24.87.45,1.26.39.75,1.4.96,2.09.48.19-.13.34-.31.21-.56-.14-.27-.36-.19-.56-.07-.02.01-.04.02-.06.03-.52.26-.98.08-1.17-.46-.07-.19-.11-.4-.14-.61-.09-.76.27-1.1,1.02-1.01.21.03.44.07.52-.2.07-.26-.11-.41-.33-.5-.12-.05-.26-.08-.39-.08-.94-.01-1.57.67-1.65,1.71Zm13.5.22c-.15-.47-.25-.91-.43-1.31-.06-.15-.31-.32-.45-.31-.26.03-.26.28-.19.5.14.47.3.93.42,1.4.05.21.04.45,0,.67-.05.31-.19.61-.23.92-.02.13.09.38.19.41.13.04.33-.05.48-.13.08-.04.13-.18.14-.29.07-.92.6-1.51,1.35-1.96.1-.06.2-.14.3-.22.2-.16.38-.36.19-.62-.2-.27-.44-.18-.67.01-.34.29-.69.58-1.09.91Zm-4.93,11.82c.15-.02.45-.06.75-.11.72-.12,1-.85.54-1.42-.35-.45-.83-.68-1.38-.55-.62.14-.92.62-1.08,1.13.38.31.73.6,1.16.96Zm-4.2-7.55c.02.32.02.61.07.9.02.11.16.21.24.31.09-.1.25-.21.24-.3-.03-.8-.07-1.61-.15-2.41,0-.11-.19-.2-.3-.3-.08.12-.21.24-.22.37-.02.29.02.58.03.88-.19.02-.35.03-.5.06-.29.05-.44-.04-.44-.35,0-.18-.01-.38-.08-.54-.05-.12-.21-.18-.32-.27-.07.11-.21.23-.2.33.06.78.14,1.55.24,2.33.02.12.2.23.31.34.07-.14.2-.27.21-.41.02-.27-.03-.55-.05-.87.31-.02.58-.03.9-.05Zm-.01,6.55c.04-.28,0-.65-.39-.9-.67-.44-1.67-.08-1.89.68-.1.35-.09.77.21.94.3.17.73.14,1.1.18.02,0,.05-.07.09-.11.26-.24.52-.47.88-.8Zm3.63-7.07c-.13-.65-.09-.7.51-.66.11,0,.23.04.33.01.12-.04.23-.13.34-.2-.1-.1-.19-.28-.3-.29-.36-.05-.73-.05-1.1-.05-.22,0-.34.12-.35.34-.01.73-.03,1.46-.03,2.2,0,.22.11.38.35.39.35.02.71.05,1.06.03.09,0,.18-.15.26-.23-.08-.09-.15-.21-.26-.26-.1-.05-.24-.02-.36-.03q-.55-.03-.5-.57s.02-.09.04-.15c.19,0,.38.03.55,0,.13-.03.24-.15.36-.23-.11-.09-.21-.21-.33-.25-.18-.05-.38-.03-.57-.04Zm-2.12-.77c.26,0,.51.03.74-.01.13-.02.24-.15.35-.23-.1-.09-.2-.24-.3-.25-.34-.03-.68-.02-1.02,0-.24.02-.37.16-.37.42.02.71.04,1.42.06,2.12,0,.26.13.41.4.41.32,0,.64.01.95-.02.12-.01.22-.14.33-.21-.11-.1-.2-.25-.32-.29-.18-.05-.39-.02-.58-.01-.18,0-.26-.06-.27-.25-.01-.45,0-.48.45-.49.07,0,.16.02.22,0,.1-.05.18-.13.26-.2-.09-.08-.17-.21-.27-.23-.2-.04-.4-.01-.63-.01,0-.14-.02-.24-.02-.33,0-.12.01-.24.02-.39Zm-4.43,2.8c.62-.04,1.02-.31,1.1-.77.07-.46-.19-.81-.76-1-.15-.05-.32-.07-.45-.14-.11-.07-.18-.2-.26-.31.11-.09.21-.22.34-.26.14-.04.32.04.47.02.12-.02.23-.12.35-.18-.07-.1-.13-.27-.22-.29-.23-.06-.48-.09-.72-.07-.45.04-.8.37-.83.75-.03.39.21.69.67.84.2.06.42.09.59.19.11.07.22.24.22.37,0,.1-.16.26-.27.28-.19.03-.4-.03-.6-.03-.1,0-.21.06-.31.09.03.11.03.27.1.31.18.1.4.15.6.23Zm-2.03,3.23c-.32.2-.62.36-.89.56-.3.23-.33.62-.02.8.55.33,1.15.6,1.69.87.18-.32.31-.55.45-.78-.39-.46-.79-.93-1.23-1.45Zm11.41-5.63c.2.03.35.08.49.06.12-.02.22-.12.33-.19-.08-.1-.14-.26-.23-.28-.55-.09-1.11-.16-1.67-.2-.1,0-.2.12-.31.19.09.1.16.24.27.28.16.06.35.05.56.07-.06.4-.11.76-.16,1.12-.04.33-.1.65-.11.98,0,.1.13.2.2.3.09-.08.2-.15.28-.24.03-.04.02-.12.03-.18.1-.62.2-1.25.31-1.91Zm-15.19,10.52c.44,0,.77-.29.78-.7,0-.41-.35-.78-.75-.79-.42-.01-.8.33-.8.74,0,.41.34.75.77.76Zm21.27-10.49c0-.39-.35-.73-.73-.73-.42,0-.75.33-.75.74,0,.41.34.74.76.72.4-.01.73-.35.72-.73Zm.82,7.41c.38,0,.69-.3.68-.67,0-.36-.33-.7-.67-.7-.35,0-.68.34-.68.68,0,.37.31.68.67.68Zm-19.41,6.62c.38.01.66-.23.68-.6.02-.34-.27-.7-.59-.71-.39-.01-.75.31-.76.68-.01.34.28.61.67.63Zm16.44-7.8c-.84-.33-1.65-.65-2.46-.96-.07-.03-.25.05-.26.1-.02.1.02.23.09.31.07.07.2.09.3.13.51.2,1.04.35,1.52.6.35.18.55.1.81-.18Zm-6.74,2.26c-.16-.49-.55-.74-1.01-.69-.46.04-.78.32-.81.69h1.82Zm-6.18-.36c-.03-.92-.06-.97-.47-.99-.43-.02-.76.28-.8.75.41.08.82.16,1.27.24Zm3.68.39c-.13-.52-.49-.73-1.08-.66-.44.05-.64.22-.66.59.57.02,1.14.05,1.74.08Zm3.58,7.4c-1.16.3-2.34.33-3.53.26-1.19-.08-2.37-.23-3.49-.74.77.82,5.51,1.24,7.02.48Zm-12.74-17.45c-.25,0-.52.23-.53.46,0,.2.28.47.54.46.26,0,.44-.15.46-.42.02-.25-.21-.49-.47-.5Zm15.23,9.52c-.3-.32-.55-.53-.92-.43-.32.09-.46.33-.54.69.48-.09.93-.17,1.46-.26Zm-17.09-3.25c-.1-.09-.24-.29-.42-.35-.22-.07-.49.25-.46.5.03.23.17.39.42.36.21-.03.43-.1.46-.51Zm18.13,2.86c-.37-.51-.8-.54-1.12-.09.36.44.46.45,1.12.09Zm-6.24-13.92l.16.02c.14-.15.33-.29.38-.47.03-.08-.2-.33-.34-.36-.25-.05-.46.13-.44.4,0,.14.15.27.23.41Zm11.57,11.14c.16.16.31.32.44.46.13-.15.27-.3.4-.45-.14-.16-.28-.34-.41-.49-.14.16-.28.32-.43.48Zm-24.1,2.86c.11.09.27.23.43.37-.03.03-.05.05-.08.08.15-.16.3-.32.45-.48-.05.04-.09.09-.14.13-.12-.18-.24-.36-.37-.54.04.02.08.04.11.06-.15.13-.3.27-.42.37Zm1.59-.72c.1-.15.21-.32.32-.48-.14-.13-.27-.26-.39-.37-.13.16-.25.31-.37.44.14.13.29.26.44.4Zm21.6-8.88c-.21-.14-.34-.3-.44-.28-.13.02-.25.18-.37.28.11.11.21.29.33.3.12.01.25-.15.48-.3Zm-17.29,17.03c.15-.19.31-.3.32-.44,0-.09-.18-.28-.29-.29-.11,0-.32.16-.32.26,0,.13.15.26.28.46Zm18.39-14.34c-.1.12-.22.25-.34.38.14.12.27.23.4.34.12-.13.23-.24.34-.36-.14-.12-.26-.24-.4-.36Zm-1.02,7.57c-.1.16-.18.27-.25.39.09.05.17.13.26.13.11,0,.21-.08.34-.14-.13-.15-.21-.22-.35-.37Zm-20.17,3.23c-.34.27-.33.31.07.53.07-.1.15-.2.23-.31-.11-.08-.2-.14-.31-.22Z"/>
      <path class="cls-3" d="m43.66,26.58c-.63.42-1.23.88-1.88,1.25-3.08,1.77-6.38,2.56-9.93,2.09-2.46-.32-4.69-1.25-6.7-2.7-2.11-1.52-3.77-3.46-4.81-5.85-1.42-3.26-1.59-6.59-.38-9.96.97-2.7,2.64-4.85,4.92-6.55,3.07-2.3,6.52-3.2,10.32-2.86,2.96.27,5.64,1.33,7.95,3.18,2.65,2.12,4.41,4.86,5.12,8.2.57,2.66.3,5.28-.65,7.82-.4,1.08-1.08,2-1.9,2.96,0-.64,0-1.17,0-1.7,0-.09.04-.19.1-.27.93-1.25,1.26-2.71,1.49-4.2.4-2.59.01-5.1-1.07-7.48-.85-1.87-2.14-3.4-3.77-4.65-2.56-1.96-5.44-3-8.68-2.99-3.35,0-6.32,1.09-8.92,3.22-1.75,1.43-3.07,3.17-3.84,5.3-1.39,3.83-1.1,7.53,1.03,11.01,1.57,2.56,3.76,4.47,6.56,5.58,2.52,1,5.14,1.22,7.82.67,1.9-.39,3.7-1.01,5.31-2.12.06-.04.13-.09.19-.09.56,0,1.12,0,1.67,0l.04.15Z"/>
      <path class="cls-3" d="m24.58,18.64c2.23,1.56,4.75,2.03,7.36,2.19,2.29.13,4.57.11,6.82-.42,1.05-.25,2.1-.55,3.12-.91.45-.16.84-.51,1.25-.76-.07.71-.35,1.41-.68,2.1-.03.06-.16.08-.25.08-.98,0-1.97,0-2.95,0-.47,0-.51.07-.53.54-.02.52-.07,1.04-.08,1.55,0,.34.08.68.07,1.01,0,.15-.1.36-.23.44-.74.49-1.57.76-2.46.84-.8.07-1.59.26-2.39.26-2.95,0-5.51-.94-7.48-3.24-.91-1.07-1.46-2.28-1.58-3.69Z"/>
      <path class="cls-3" d="m39.93,21.32c1.15,0,2.3.01,3.44,0,.35,0,.69-.11,1.04-.13.29-.02.58,0,.9,0v5.09s-.06,0-.09,0v-4.82s-.05,0-.07,0v4.86c-1.88-.39-3.75-.37-5.65-.07v-4.73s-.05,0-.08,0v4.77c-.16-.01-.27-.02-.42-.03v-5.06c.31.05.63-.09.85.29.08.13.34.2.52.21,1.1.02,2.2,0,3.31-.06-.1-.01-.21-.04-.31-.04-.94,0-1.88,0-2.82-.02-.22,0-.44-.09-.65-.14.01-.03.03-.07.04-.1Zm.03.8s-.08,0-.12,0c0,.69-.01,1.38,0,2.07.02.78.37,1.18,1.16,1.23.77.05,1.54.05,2.31.03.54-.01,1.01-.46,1.02-.92,0-.61,0-1.22-.02-1.83-.01-.21-.12-.42-.21-.68.02.8.06,1.51.06,2.22,0,.64-.32,1.03-.96,1.06-.78.03-1.56.01-2.34-.04-.55-.04-.84-.4-.86-.96-.02-.59,0-1.17-.01-1.76,0-.14-.02-.28-.04-.42Zm1.53,2.27c.14.24.35.46.65.4.19-.03.36-.21.53-.32-.02-.03-.04-.06-.06-.08h-1.13Zm-.94-1.25s0,.08-.01.12h1.08c-.35-.31-.71-.28-1.07-.12Zm3.02.14c-.32-.32-.65-.29-.98,0h.98Zm-2.96,2.39s0,.03,0,.05h2.98s0-.03,0-.05h-2.98Z"/>
      <path class="cls-3" d="m41.78,18c-.4.21-.8.43-1.1.59-.35-.22-.6-.45-.88-.54-.19-.06-.5,0-.65.13-.26.22-.49.19-.81.11.11-.26.21-.51.31-.76.7-1.63,1.4-3.25,2.09-4.88.03-.08.02-.18.01-.27-.04-.32.11-.49.41-.38,1.25.46,2.49.94,3.74,1.41.24.09.26.26.15.47-.08.17-.16.34-.23.51-.41,1.04-.82,2.08-1.23,3.11-1.05-.4-2.02-.77-2.98-1.14-.19-.07-.4-.12-.59-.19-.25-.09-.45-.02-.55.21-.1.25,0,.46.25.57.39.17.79.32,1.19.49.29.13.56.27.85.41,0,.05.02.1.03.15Zm.82-4.21c-.18-.02-.3-.07-.41-.05-.14.03-.38.08-.39.16-.05.3.06.55.33.74.25.18.43.11.53.03-.09-.3-.15-.54-.22-.77.03-.01.07-.02.1-.03.06.1.12.2.19.3-.05.07-.09.14-.16.24q.37-.14.03-.62Zm-.38,1.34c-.2-.16-.33-.34-.43-.33-.12.02-.31.19-.32.3,0,.12.16.25.26.38.13-.1.26-.19.48-.35Zm.62.18c-.19-.14-.34-.3-.42-.28-.12.04-.25.21-.28.34-.01.08.19.29.26.27.13-.03.24-.18.43-.33Zm.47.54c.14-.14.24-.24.33-.33-.24-.11-.48-.21-.74-.33-.06.21-.11.39-.16.59.2-.09.38-.17.58-.26v.32Zm-2-.54s0-.05,0-.08c-.1-.09-.2-.18-.3-.28.13-.08.27-.15.5-.29-.22.02-.4,0-.5.07-.09.07-.18.31-.13.36.09.11.27.15.41.22Zm-.45-.72s0-.06.01-.08c-.1-.01-.26-.08-.3-.03-.08.08-.14.23-.12.34.01.1.13.19.21.28l.09-.07c-.07-.12-.14-.24-.24-.41.17,0,.26-.01.36-.02Z"/>
      <path class="cls-3" d="m26.87,16.4c-.33.2-.6.34-.84.52-.59.44-.6,1.02,0,1.44.79.55,1.7.79,2.62,1,2.24.5,4.51.57,6.79.47,2.07-.09,4.08-.4,5.99-1.25.32-.14.55-.33.65-.68.12-.41.6-.61.93-.37.1.07.17.26.15.38-.07.54-.48.83-.9,1.09-.86.55-1.85.76-2.82,1-2.92.74-5.89.74-8.86.44-1.61-.16-3.18-.57-4.64-1.29-.45-.22-.88-.54-1.22-.9-.42-.43-.39-.92.08-1.28.44-.35.97-.6,1.49-.83.12-.05.35.16.57.27Z"/>
      <path class="cls-3" d="m38.94,16.32c-.33.73-.63,1.39-.95,2.1-.45-1.25-1.66-1.66-2.65-1.03-.88-1.39-2.79-1.31-3.39.11-.69-.5-1.54-.57-2.35.25-.46-.43-.92-.86-1.46-1.37,3.62-.88,7.17-.86,10.79-.06Z"/>
      <path class="cls-3" d="m29.31,17.95c-.08,0-.18-.05-.25-.02-.51.2-.73-.17-1.01-.48-.57-.62-1.16-1.22-1.74-1.83-.06-.06-.1-.13-.15-.2-1.19.8-2.94.28-3.62-1.06-.34-.68-.38-1.33.1-1.96.48-.62,1.15-.76,1.88-.61,1.59.32,2.44,1.82,2.02,3.11-.03.08,0,.22.05.28.64.64,1.28,1.27,1.93,1.9.28.27.56.53.85.79-.02.03-.03.05-.05.08Zm-3-3.67c.05-1.29-1.49-2.46-2.72-2.06-.59.19-.92.72-.84,1.33.15,1.09,1.34,1.99,2.48,1.87.7-.07,1.05-.44,1.08-1.15Z"/>
      <path class="cls-3" d="m39.21,15.57c-.17.5-.17.49-.66.39-3.39-.67-6.77-.66-10.15.1-.38.09-.65.11-.83-.28,1.53-.8,7.57-1.32,11.63-.22Z"/>
      <path class="cls-3" d="m33.51,7.4c-.06.92-.39,1.43-1.08,1.63-.75.21-1.53-.14-1.79-.88-.14-.4-.22-.83-.22-1.25,0-.88.49-1.45,1.26-1.54.75-.1,1.41.35,1.66,1.15.09.29.11.6.17.9Zm-.69-.14c-.06-.24-.1-.54-.22-.82-.14-.31-.41-.48-.77-.45-.35.04-.59.23-.67.58-.13.52-.07,1.02.21,1.48.16.25.4.39.71.35.31-.05.55-.21.63-.53.05-.17.06-.36.11-.61Z"/>
      <path class="cls-3" d="m33.82,7.28c.03-.69.15-1.26.65-1.66.67-.55,1.62-.37,2.04.39.42.75.39,1.52.07,2.29-.22.54-.79.8-1.5.72-.57-.06-1.03-.49-1.17-1.1-.05-.24-.06-.48-.08-.63Zm2.37-.03c-.05-.28-.07-.51-.14-.73-.11-.33-.34-.53-.7-.54-.37,0-.64.21-.7.54-.07.41-.09.85-.04,1.26.03.31.28.51.61.55.33.03.62-.09.76-.39.11-.22.15-.48.21-.69Z"/>
      <path class="cls-3" d="m37.73,25.28c-.2.52-.5.84-1.03.98-1.24.33-2.51.39-3.78.29-.85-.06-1.69-.24-2.52-.4-.58-.11-.9-.53-1.08-1.1,1.36.55,2.77.75,4.2.81,1.42.06,2.81-.2,4.21-.58Z"/>
      <path class="cls-3" d="m33.38,19.36c-.21-.36-.51-.66-1.01-.7-.07,0-.16-.14-.18-.23-.15-.62.09-1.21.61-1.56.48-.32,1.2-.3,1.69.07.14.1.26.23.37.35.18.2.23.38.06.65-.34.53-.32.52-.85.82-.25.14-.45.39-.69.6Z"/>
      <path class="cls-3" d="m37.81,8.05c-.03.23-.05.42-.08.61-.04.23-.04.52-.36.5-.34-.02-.31-.33-.3-.57.02-.45.05-.9.09-1.35.03-.41.06-.83.1-1.24.03-.36.16-.47.53-.43.34.04.68.09,1.01.17.56.14.92.65.87,1.2-.07.65-.44,1.06-1.06,1.1-.25.02-.51,0-.8,0Zm.16-1.77c-.03.33-.07.61-.07.88,0,.06.1.18.16.19.19.02.42.05.57-.03.15-.09.31-.31.3-.47,0-.16-.18-.36-.33-.45-.15-.09-.37-.08-.63-.12Z"/>
      <path class="cls-3" d="m26.34,7.02c-.48-.03-.79.11-.78.36.02.42.38.4.67.47.21.05.43.11.63.19.42.18.66.49.67.96,0,.46-.26.75-.65.94-.43.2-.89.23-1.31.01-.13-.07-.28-.31-.25-.44.04-.23.26-.22.48-.16.18.05.4.07.57.02.16-.05.4-.22.39-.33,0-.16-.18-.37-.33-.44-.32-.14-.69-.18-1.01-.32-.6-.26-.76-.9-.39-1.43.27-.4,1.26-.66,1.68-.42.11.06.22.26.2.37-.01.09-.21.17-.34.23-.06.03-.14,0-.22,0Z"/>
      <path class="cls-3" d="m27.59,7.43c.07-1.05.7-1.73,1.65-1.71.13,0,.27.03.39.08.21.09.4.24.33.5-.07.27-.3.23-.52.2-.75-.09-1.11.25-1.02,1.01.02.2.07.41.14.61.19.55.65.72,1.17.46.02-.01.04-.02.06-.03.21-.12.42-.2.56.07.13.24-.02.42-.21.56-.69.48-1.7.27-2.09-.48-.2-.39-.3-.84-.45-1.26Z"/>
      <path class="cls-3" d="m41.08,7.66c.4-.33.74-.62,1.09-.91.22-.19.46-.28.67-.01.2.26.02.45-.19.62-.1.08-.19.15-.3.22-.75.45-1.28,1.04-1.35,1.96,0,.1-.06.24-.14.29-.14.08-.34.17-.48.13-.1-.03-.21-.28-.19-.41.04-.31.18-.61.23-.92.04-.22.05-.46,0-.67-.12-.47-.28-.94-.42-1.4-.06-.21-.07-.47.19-.5.14-.01.39.16.45.31.18.41.28.85.43,1.31Z"/>
      <path class="cls-3" d="m36.15,19.48c-.44-.36-.78-.65-1.16-.96.15-.51.46-.99,1.08-1.13.56-.12,1.03.1,1.38.55.45.58.17,1.31-.54,1.42-.3.05-.6.09-.75.11Z"/>
      <path class="cls-3" d="m31.95,11.92c-.32.02-.59.04-.9.05.02.31.07.59.05.87-.01.14-.14.27-.21.41-.11-.11-.3-.21-.31-.34-.11-.77-.18-1.55-.24-2.33,0-.11.13-.22.2-.33.11.09.27.16.32.27.07.16.08.36.08.54,0,.31.15.41.44.35.15-.03.31-.04.5-.06-.01-.3-.05-.59-.03-.88,0-.13.14-.24.22-.37.1.1.29.19.3.3.07.8.12,1.6.15,2.41,0,.1-.16.2-.24.3-.08-.1-.22-.19-.24-.31-.05-.28-.05-.58-.07-.9Z"/>
      <path class="cls-3" d="m31.94,18.48c-.36.33-.62.56-.88.8-.03.03-.06.11-.09.11-.37-.05-.79-.01-1.1-.18-.3-.17-.31-.59-.21-.94.22-.76,1.22-1.12,1.89-.68.38.25.42.63.39.9Z"/>
      <path class="cls-3" d="m35.57,11.4c.18.01.38,0,.57.04.12.03.22.16.33.25-.12.08-.23.2-.36.23-.17.04-.36,0-.55,0-.02.06-.04.1-.04.15q-.05.54.5.57c.12,0,.26-.02.36.03.1.05.17.17.26.26-.09.08-.17.23-.26.23-.35.01-.71-.01-1.06-.03-.24-.01-.35-.17-.35-.39,0-.73.02-1.46.03-2.2,0-.22.13-.34.35-.34.37,0,.74,0,1.1.05.11.02.2.19.3.29-.11.07-.22.16-.34.2-.1.03-.22,0-.33-.01-.61-.03-.64,0-.51.66Z"/>
      <path class="cls-3" d="m33.44,10.63c0,.15-.02.27-.02.39,0,.09,0,.19.02.33.22,0,.43-.03.63.01.1.02.18.15.27.23-.09.07-.17.15-.26.2-.06.03-.14,0-.22,0-.45.01-.46.04-.45.49,0,.2.08.26.27.25.2,0,.4-.04.58.01.13.03.22.19.32.29-.11.07-.21.2-.33.21-.31.03-.63.02-.95.02-.28,0-.4-.14-.4-.41-.02-.71-.03-1.42-.06-2.12,0-.26.13-.4.37-.42.34-.02.69-.03,1.02,0,.11,0,.2.16.3.25-.12.08-.23.21-.35.23-.23.04-.48.01-.74.01Z"/>
      <path class="cls-3" d="m29.02,13.43c-.2-.07-.42-.12-.6-.23-.07-.04-.07-.2-.1-.31.1-.03.21-.09.31-.09.2,0,.41.07.6.03.11-.02.27-.18.27-.28,0-.12-.11-.3-.22-.37-.17-.1-.39-.13-.59-.19-.46-.15-.7-.45-.67-.84.03-.38.38-.71.83-.75.24-.02.49.01.72.07.09.02.15.19.22.29-.12.06-.23.16-.35.18-.15.02-.32-.06-.47-.02-.13.03-.23.17-.34.26.09.11.15.24.26.31.13.08.3.09.45.14.57.2.84.55.76,1-.07.46-.47.73-1.1.77Z"/>
      <path class="cls-3" d="m26.99,16.66c.44.52.84.99,1.23,1.45-.14.24-.26.47-.45.78-.54-.28-1.14-.54-1.69-.87-.31-.18-.29-.57.02-.8.27-.2.57-.36.89-.56Z"/>
      <path class="cls-3" d="m38.4,11.03c-.11.67-.21,1.29-.31,1.91,0,.06,0,.14-.03.18-.08.09-.18.16-.28.24-.07-.1-.21-.2-.2-.3.01-.33.07-.65.11-.98.05-.36.1-.72.16-1.12-.21-.02-.4-.01-.56-.07-.11-.04-.18-.19-.27-.28.1-.07.21-.2.31-.19.56.05,1.12.11,1.67.2.09.01.15.18.23.28-.11.07-.21.17-.33.19-.14.02-.29-.03-.49-.06Z"/>
      <path class="cls-3" d="m23.21,21.55c-.44,0-.78-.35-.77-.76,0-.41.38-.75.8-.74.41.01.76.39.75.79,0,.41-.34.71-.78.7Z"/>
      <path class="cls-3" d="m44.48,11.06c0,.38-.33.72-.72.73-.42.02-.76-.31-.76-.72,0-.41.34-.73.75-.74.38,0,.72.34.73.73Z"/>
      <path class="cls-3" d="m45.31,18.47c-.36,0-.67-.3-.67-.68,0-.34.34-.68.68-.68.34,0,.67.33.67.7,0,.36-.3.66-.68.67Z"/>
      <path class="cls-3" d="m25.9,25.09c-.38-.02-.68-.29-.67-.63.01-.37.37-.7.76-.68.32.01.61.37.59.71-.02.37-.3.62-.68.6Z"/>
      <path class="cls-3" d="m42.34,17.29c-.26.28-.47.36-.81.18-.48-.25-1.01-.41-1.52-.6-.1-.04-.23-.05-.3-.13-.07-.07-.11-.21-.09-.31,0-.05.19-.12.26-.1.82.31,1.63.63,2.46.96Z"/>
      <path class="cls-3" d="m35.6,19.55h-1.82c.04-.37.35-.65.81-.69.46-.04.85.2,1.01.69Z"/>
      <path class="cls-3" d="m29.42,19.19c-.45-.08-.86-.16-1.27-.24.04-.47.37-.76.8-.75.41.02.43.07.47.99Z"/>
      <path class="cls-3" d="m33.1,19.58c-.6-.03-1.17-.05-1.74-.08.02-.37.22-.54.66-.59.59-.06.96.14,1.08.66Z"/>
      <path class="cls-3" d="m36.68,26.98c-1.51.76-6.25.34-7.02-.48,1.12.51,2.3.66,3.49.74,1.18.08,2.36.05,3.53-.26Z"/>
      <path class="cls-3" d="m23.94,9.53c.26,0,.5.25.47.5-.02.27-.2.41-.46.42-.26,0-.54-.26-.54-.46,0-.23.28-.47.53-.46Z"/>
      <path class="cls-3" d="m39.17,19.05c-.53.1-.98.18-1.46.26.08-.37.23-.61.54-.69.37-.1.62.11.92.43Z"/>
      <path class="cls-3" d="m22.08,15.8c-.03.4-.25.48-.46.51-.24.04-.38-.13-.42-.36-.03-.24.23-.56.46-.5.18.05.32.26.42.35Z"/>
      <path class="cls-3" d="m40.21,18.66c-.66.36-.76.35-1.12-.09.32-.44.76-.42,1.12.09Z"/>
      <path class="cls-3" d="m33.97,4.75c-.08-.14-.22-.27-.23-.41-.02-.27.19-.45.44-.4.14.03.37.27.34.36-.05.18-.25.32-.38.47l-.16-.02Z"/>
      <path class="cls-3" d="m45.54,15.88c.14-.16.29-.32.43-.48.13.15.27.33.41.49-.13.15-.26.3-.4.45-.14-.14-.29-.3-.44-.46Z"/>
      <path class="cls-3" d="m21.44,18.74c.12-.1.27-.24.42-.37-.04-.02-.08-.04-.11-.06.12.18.24.36.37.54.05-.04.09-.09.14-.13-.15.16-.3.32-.45.48.03-.03.05-.05.08-.08-.16-.14-.32-.27-.43-.37Z"/>
      <path class="cls-3" d="m23.03,18.02c-.15-.14-.3-.27-.44-.4.11-.13.23-.28.37-.44.12.11.25.23.39.37-.1.16-.21.32-.32.48Z"/>
      <path class="cls-3" d="m44.63,9.14c-.23.15-.36.31-.48.3-.12-.01-.22-.19-.33-.3.12-.1.23-.25.37-.28.1-.02.23.14.44.28Z"/>
      <path class="cls-3" d="m27.34,26.17c-.13-.2-.28-.33-.28-.46,0-.09.21-.26.32-.26.11,0,.3.19.29.29-.01.13-.17.25-.32.44Z"/>
      <path class="cls-3" d="m45.73,11.83c.14.12.26.24.4.36-.11.12-.22.23-.34.36-.13-.11-.25-.21-.4-.34.12-.14.24-.27.34-.38Z"/>
      <path class="cls-3" d="m44.71,19.4c.14.15.21.23.35.37-.13.06-.23.13-.34.14-.08,0-.17-.08-.26-.13.08-.12.15-.23.25-.39Z"/>
      <path class="cls-3" d="m24.54,22.63c.1.07.19.14.31.22-.08.11-.16.21-.23.31-.41-.21-.41-.25-.07-.53Z"/>
      <path class="cls-2" d="m39.96,22.13c.01.14.03.28.04.42,0,.59,0,1.17.01,1.76.02.56.31.92.86.96.78.05,1.56.07,2.34.04.64-.03.96-.42.96-1.06,0-.71-.04-1.43-.06-2.22.09.27.2.47.21.68.03.61.03,1.22.02,1.83,0,.46-.48.91-1.02.92-.77.02-1.54.02-2.31-.03-.79-.05-1.14-.45-1.16-1.23-.02-.69,0-1.38,0-2.07.04,0,.08,0,.12,0Z"/>
      <path class="cls-2" d="m41.49,24.39h1.13s.04.06.06.08c-.18.11-.34.28-.53.32-.31.06-.51-.16-.65-.4Z"/>
      <path class="cls-2" d="m40.55,23.15c.36-.16.72-.2,1.07.12h-1.08s0-.08.01-.12Z"/>
      <path class="cls-2" d="m43.57,23.29h-.98c.33-.29.65-.32.98,0Z"/>
      <path class="cls-2" d="m40.61,25.68h2.98s0,.03,0,.05h-2.98s0-.03,0-.05Z"/>
      <path class="cls-2" d="m42.59,13.8q.34.48-.03.62c.07-.11.12-.17.16-.24-.06-.1-.12-.2-.19-.3-.03.01-.07.02-.1.03.07.24.13.47.22.77-.1.08-.28.15-.53-.03-.27-.19-.38-.45-.33-.74.01-.07.25-.13.39-.16.11-.02.22.02.41.05Zm-.35.28s.01.05.02.07c-.1.05-.2.09-.35.16.19.13.34.22.5.32-.02-.18,0-.35-.06-.48-.07-.13-.21-.22-.32-.33-.05.08-.1.15-.19.29.2-.02.3-.03.4-.04Z"/>
      <path class="cls-2" d="m42.22,15.14c-.22.16-.35.26-.48.35-.09-.13-.26-.26-.26-.38,0-.11.19-.29.32-.3.1-.01.23.17.43.33Z"/>
      <path class="cls-2" d="m42.83,15.31c-.19.16-.3.3-.43.33-.07.01-.28-.19-.26-.27.02-.13.15-.3.28-.34.08-.03.23.14.42.28Z"/>
      <path class="cls-2" d="m43.3,15.86v-.32c-.2.09-.38.17-.58.26.05-.2.1-.38.16-.59.27.12.5.22.74.33-.08.08-.18.18-.33.33Z"/>
      <path class="cls-2" d="m41.3,15.31c-.14-.07-.32-.11-.41-.22-.05-.06.04-.3.13-.36.1-.07.27-.04.5-.07-.23.13-.37.21-.5.29.1.09.2.18.3.28,0,.03,0,.05,0,.08Z"/>
      <path class="cls-2" d="m40.85,14.6c-.09,0-.19,0-.36.02.1.17.17.29.24.41l-.09.07c-.07-.09-.19-.18-.21-.28-.02-.11.04-.26.12-.34.04-.04.2.02.3.03,0,.03,0,.06-.01.08Z"/>
      <path class="cls-2" d="m26.31,14.28c-.03.7-.38,1.08-1.08,1.15-1.14.11-2.34-.79-2.48-1.87-.08-.62.25-1.14.84-1.33,1.23-.4,2.77.77,2.72,2.06Zm-.18-.02c0-.94-1.08-1.96-2.02-1.91-1.04.05-1.47.74-1,1.64.4.76,1.06,1.21,1.92,1.29.68.06,1.1-.35,1.1-1.02Z"/>
      <path class="cls-2" d="m32.82,7.26c-.04.25-.06.43-.11.61-.09.32-.32.48-.63.53-.31.05-.55-.09-.71-.35-.28-.46-.34-.96-.21-1.48.09-.34.32-.54.67-.58.36-.04.63.14.77.45.12.27.16.58.22.82Z"/>
      <path class="cls-2" d="m36.19,7.25c-.06.21-.1.47-.21.69-.15.3-.43.42-.76.39-.33-.03-.58-.24-.61-.55-.05-.42-.03-.85.04-1.26.06-.33.33-.54.7-.54.36,0,.6.21.7.54.07.22.09.45.14.73Z"/>
      <path class="cls-2" d="m37.98,6.28c.25.04.47.02.63.12.15.09.33.29.33.45,0,.16-.15.39-.3.47-.15.09-.38.05-.57.03-.06,0-.16-.12-.16-.19,0-.28.04-.55.07-.88Z"/>
      <path class="cls-3" d="m42.24,14.08c-.1,0-.2.02-.4.04.09-.14.14-.22.19-.29.11.11.26.2.32.33.06.13.04.3.06.48-.16-.1-.31-.2-.5-.32.15-.07.25-.11.35-.16,0-.02-.01-.05-.02-.07Z"/>
      <path class="cls-3" d="m26.13,14.26c0,.67-.42,1.08-1.1,1.02-.87-.08-1.52-.52-1.92-1.29-.47-.9-.04-1.59,1-1.64.94-.05,2.02.97,2.02,1.91Zm-.59-.38c-.43-.37-.52-.37-1-.04,0,.14-.04.38,0,.4.26.1.54.17.81.18.1,0,.23-.18.3-.31.02-.04-.07-.16-.12-.24Z"/>
      <path class="cls-3" d="m24.54,13.84c.48-.33.56-.33,1,.04-.05.15-.08.41-.15.41-.25.02-.51,0-.75-.07-.07-.02-.07-.25-.11-.38Z"/>
      <path class="cls-2" d="m24.54,13.84c.03.13.04.36.11.38.24.07.5.1.75.07.06,0,.1-.27.15-.41.04.08.14.2.12.24-.08.12-.2.31-.3.31-.27,0-.55-.09-.81-.18-.04-.02,0-.26,0-.4Z"/>
      <line class="cls-1" x1="4.99" y1="40.09" x2="61.11" y2="40.09"/>
      <path class="cls-2" d="m0,40.08c.86-.07,1.14-.69,1.38-1.37.11.76.46,1.29,1.29,1.42-.79.11-1.11.61-1.23,1.34-.22-.75-.69-1.19-1.44-1.39Z"/>
      <path class="cls-2" d="m62.79,40.08c.86-.07,1.14-.69,1.38-1.37.11.76.46,1.29,1.29,1.42-.79.11-1.11.61-1.23,1.34-.22-.75-.69-1.19-1.44-1.39Z"/>
    </g>
  </g>
</svg>